<?xml version="1.0" encoding="UTF-8"?>
<svg id="Camada_1" data-name="Camada 1" xmlns="http://www.w3.org/2000/svg" version="1.1" viewBox="0 0 184.85 66.38">
  <defs>
    <style>
      .cls-1 {
        fill: #c7c6c6;
      }

      .cls-1, .cls-2 {
        stroke-width: 0px;
      }

      .cls-2 {
        fill: #4fb692;
      }
    </style>
  </defs>
  <g>
    <path class="cls-2" d="M9.46,24.51v-4.17l16.67-7.34v4.79l-11.41,4.58.15-.25v.59l-.15-.25,11.41,4.58v4.79l-16.67-7.34Z"/>
    <path class="cls-2" d="M40.82,13.94v3.79h-10.95v-3.79h10.95ZM32.35,9.58h5.04v16.96c0,.47.07.83.21,1.08.14.26.34.44.6.54s.55.15.89.15c.24,0,.47-.02.71-.07.24-.04.42-.08.54-.1l.79,3.75c-.25.08-.61.17-1.07.28-.46.11-1.01.17-1.67.2-1.22.05-2.28-.12-3.19-.49-.91-.37-1.62-.95-2.12-1.73-.51-.78-.75-1.77-.75-2.96V9.58Z"/>
    <path class="cls-2" d="M49.28,32.47c-1.16,0-2.19-.2-3.1-.61s-1.62-1.01-2.15-1.81c-.52-.8-.79-1.8-.79-3,0-1.01.19-1.86.56-2.55.37-.69.88-1.24,1.52-1.66.64-.42,1.37-.73,2.18-.95.82-.21,1.68-.36,2.58-.45,1.06-.11,1.91-.22,2.56-.31s1.12-.25,1.41-.44.44-.49.44-.88v-.07c0-.75-.23-1.33-.7-1.74-.47-.41-1.13-.62-2-.62-.91,0-1.63.2-2.17.6-.54.4-.89.9-1.07,1.5l-4.67-.38c.24-1.11.7-2.06,1.4-2.87.69-.81,1.59-1.43,2.69-1.87s2.38-.66,3.83-.66c1.01,0,1.98.12,2.91.36.93.24,1.75.6,2.47,1.1.72.5,1.29,1.13,1.71,1.91.42.78.63,1.71.63,2.79v12.27h-4.78v-2.52h-.14c-.29.57-.68,1.07-1.17,1.5-.49.43-1.08.77-1.76,1.01-.69.24-1.48.36-2.38.36ZM50.73,28.99c.74,0,1.4-.15,1.97-.44s1.01-.7,1.34-1.2c.32-.51.49-1.08.49-1.72v-1.93c-.16.1-.37.2-.65.28-.27.08-.58.16-.92.23-.34.07-.68.13-1.02.18-.34.05-.65.1-.92.14-.59.09-1.11.22-1.55.41-.44.19-.79.44-1.03.76-.25.32-.37.72-.37,1.19,0,.69.25,1.21.75,1.57.5.36,1.14.54,1.91.54Z"/>
    <path class="cls-2" d="M63.54,32.13V7.88h5.04v9.12h.15c.22-.49.54-.99.96-1.5s.98-.94,1.66-1.28c.68-.34,1.53-.51,2.55-.51,1.33,0,2.55.35,3.67,1.04s2.02,1.73,2.69,3.11c.67,1.38,1.01,3.12,1.01,5.2s-.33,3.74-.98,5.13c-.65,1.39-1.54,2.45-2.65,3.16-1.12.71-2.37,1.07-3.75,1.07-.98,0-1.81-.16-2.49-.49s-1.24-.73-1.68-1.23-.77-.99-.99-1.5h-.23v2.91h-4.97ZM68.48,23.03c0,1.08.15,2.03.45,2.83.3.81.73,1.43,1.3,1.88s1.26.67,2.07.67,1.52-.23,2.08-.68,1-1.09,1.3-1.89c.3-.81.44-1.74.44-2.8s-.15-1.97-.44-2.77c-.29-.8-.72-1.42-1.29-1.87-.57-.45-1.27-.67-2.1-.67s-1.51.22-2.08.65c-.56.43-1,1.05-1.3,1.85-.3.8-.45,1.74-.45,2.82Z"/>
    <path class="cls-2" d="M94.41,13.94v3.79h-11.22v-3.79h11.22ZM85.75,32.13V12.63c0-1.32.26-2.41.78-3.28s1.23-1.52,2.13-1.95c.9-.43,1.92-.65,3.07-.65.77,0,1.48.06,2.13.18.64.12,1.12.22,1.44.32l-.9,3.79c-.2-.06-.44-.12-.73-.18-.29-.06-.58-.08-.88-.08-.74,0-1.26.17-1.55.51-.29.34-.44.82-.44,1.44v19.41h-5.03Z"/>
    <path class="cls-2" d="M105.06,32.48c-1.84,0-3.43-.39-4.77-1.18-1.34-.79-2.37-1.88-3.1-3.29-.73-1.41-1.09-3.04-1.09-4.91s.36-3.52,1.09-4.93c.73-1.41,1.76-2.51,3.1-3.29,1.34-.79,2.93-1.18,4.77-1.18s3.43.39,4.77,1.18c1.34.79,2.37,1.88,3.1,3.29s1.09,3.05,1.09,4.93-.36,3.5-1.09,4.91-1.76,2.51-3.1,3.29c-1.34.79-2.93,1.18-4.77,1.18ZM105.09,28.57c.84,0,1.54-.24,2.1-.72s.98-1.13,1.27-1.96c.29-.83.43-1.77.43-2.83s-.14-2-.43-2.83-.71-1.48-1.27-1.97-1.26-.72-2.1-.72-1.55.24-2.13.72-1,1.14-1.29,1.97-.43,1.77-.43,2.83.14,2,.43,2.83c.29.83.72,1.48,1.29,1.96s1.28.72,2.13.72ZM103.25,11.6l2.51-5.39h4.67l-3.61,5.39h-3.56Z"/>
    <path class="cls-2" d="M122.35,7.88v24.25h-5.04V7.88h5.04Z"/>
    <path class="cls-2" d="M128.91,11.6c-.75,0-1.39-.25-1.92-.75-.53-.5-.8-1.1-.8-1.81s.27-1.29.8-1.79c.53-.5,1.17-.75,1.92-.75s1.39.25,1.92.75c.53.5.8,1.1.8,1.79s-.27,1.3-.8,1.81-1.17.75-1.92.75ZM126.38,32.13V13.94h5.04v18.19h-5.04Z"/>
    <path class="cls-2" d="M143.66,32.48c-1.84,0-3.43-.39-4.77-1.18-1.34-.79-2.37-1.88-3.1-3.29-.73-1.41-1.09-3.04-1.09-4.91s.36-3.52,1.09-4.93c.73-1.41,1.76-2.51,3.1-3.29,1.34-.79,2.93-1.18,4.77-1.18s3.43.39,4.77,1.18c1.34.79,2.37,1.88,3.1,3.29.73,1.41,1.09,3.05,1.09,4.93s-.36,3.5-1.09,4.91c-.73,1.41-1.76,2.51-3.1,3.29-1.34.79-2.93,1.18-4.77,1.18ZM143.69,28.57c.84,0,1.54-.24,2.1-.72s.98-1.13,1.27-1.96c.29-.83.43-1.77.43-2.83s-.14-2-.43-2.83-.71-1.48-1.27-1.97-1.26-.72-2.1-.72-1.55.24-2.13.72-1,1.14-1.29,1.97-.43,1.77-.43,2.83.14,2,.43,2.83c.29.83.72,1.48,1.29,1.96s1.28.72,2.13.72Z"/>
    <path class="cls-2" d="M173.56,24.51l-16.67,7.34v-4.79l11.42-4.58-.15.25v-.59l.15.25-11.42-4.58v-4.79l16.67,7.34v4.17Z"/>
  </g>
  <g>
    <path class="cls-1" d="M19.17,58.49h-2.03l4.55-11.94h2.2l4.55,11.94h-2.03l-3.58-9.77h-.1l-3.58,9.77ZM19.51,53.82h6.57v1.52h-6.57v-1.52Z"/>
    <path class="cls-1" d="M31.97,53.18v5.32h-1.85v-8.96h1.77v1.46h.12c.22-.47.56-.86,1.03-1.14.47-.29,1.06-.43,1.77-.43.65,0,1.21.13,1.7.38.49.25.86.63,1.13,1.13s.4,1.12.4,1.86v5.7h-1.85v-5.49c0-.65-.18-1.16-.54-1.52-.36-.37-.85-.55-1.48-.55-.43,0-.81.09-1.14.26-.33.17-.59.43-.78.77s-.29.74-.29,1.21Z"/>
    <path class="cls-1" d="M44.07,58.67c-.77,0-1.45-.19-2.05-.56-.6-.37-1.07-.9-1.41-1.59-.34-.69-.51-1.52-.51-2.49s.17-1.8.52-2.48c.34-.69.82-1.21,1.42-1.58s1.28-.55,2.04-.55c.59,0,1.06.09,1.42.28s.64.4.84.64.35.46.47.65h.11v-4.44h1.85v11.94h-1.8v-1.39h-.15c-.11.19-.27.41-.48.65-.21.25-.49.46-.86.64-.36.18-.83.27-1.41.27ZM44.47,57.18c.53,0,.98-.13,1.35-.4.37-.27.65-.64.84-1.11.19-.47.29-1.03.29-1.66s-.09-1.17-.28-1.63c-.19-.47-.47-.83-.83-1.09-.37-.26-.82-.39-1.36-.39s-1.02.14-1.39.41c-.37.27-.65.64-.84,1.11-.19.47-.28,1-.28,1.59s.09,1.14.28,1.62c.19.48.47.86.84,1.13s.83.42,1.38.42Z"/>
    <path class="cls-1" d="M51.4,58.49v-8.96h1.78v1.42h.1c.17-.48.48-.86.92-1.14.44-.28.94-.42,1.49-.42.12,0,.25,0,.41.01.16,0,.28.02.37.03v1.67c-.07-.02-.21-.04-.4-.07-.19-.02-.38-.04-.57-.04-.44,0-.82.09-1.16.26-.34.17-.61.41-.81.72-.2.3-.3.65-.3,1.04v5.47h-1.85Z"/>
    <path class="cls-1" d="M61.82,58.67c-.93,0-1.74-.19-2.41-.57-.67-.38-1.19-.91-1.56-1.6-.36-.69-.55-1.5-.55-2.43s.18-1.73.55-2.43c.36-.7.87-1.25,1.53-1.64s1.43-.59,2.31-.59c.53,0,1.05.08,1.56.25.5.17.95.43,1.35.79.4.36.71.82.94,1.39s.35,1.26.35,2.07v.62h-7.54v-1.31h5.73c0-.46-.1-.87-.3-1.22-.2-.36-.47-.64-.83-.84-.36-.21-.77-.31-1.25-.31-.52,0-.97.12-1.36.36-.39.24-.68.55-.89.93-.21.38-.31.8-.31,1.24v1.02c0,.6.11,1.11.34,1.53.22.42.54.74.94.96s.87.33,1.41.33c.35,0,.67-.05.96-.14.29-.09.54-.24.75-.43.21-.19.37-.42.48-.71l1.75.3c-.14.49-.39.91-.75,1.27-.36.36-.81.65-1.35.85-.54.2-1.16.3-1.85.3ZM60.86,48.34l1.45-2.69h1.94l-1.91,2.69h-1.48Z"/>
    <path class="cls-1" d="M72.7,46.55h2.32l4.03,9.28h.15l4.03-9.28h2.32v11.94h-1.82v-8.64h-.12l-3.73,8.62h-1.51l-3.73-8.63h-.12v8.65h-1.82v-11.94Z"/>
    <path class="cls-1" d="M89.38,58.6c-.34,0-.63-.11-.87-.34-.24-.23-.36-.5-.36-.83s.12-.59.36-.82c.24-.23.53-.34.87-.34s.63.11.87.34c.24.23.36.5.36.82,0,.21-.06.41-.17.59-.11.18-.26.32-.45.42-.19.11-.39.16-.62.16Z"/>
    <path class="cls-1" d="M104.54,49.69c-.07-.55-.34-.98-.82-1.29-.48-.3-1.08-.46-1.8-.46-.52,0-.97.08-1.35.23-.38.15-.67.36-.88.63-.21.27-.31.57-.31.91,0,.28.07.53.21.74s.33.38.56.52.48.25.75.34c.27.09.52.17.77.22l1.24.3c.4.09.82.22,1.24.38.42.16.82.37,1.18.63.36.26.66.58.88.97.22.38.34.85.34,1.38,0,.68-.18,1.28-.55,1.8-.37.52-.9.94-1.6,1.24-.7.3-1.54.46-2.53.46s-1.77-.14-2.46-.43c-.69-.28-1.23-.69-1.62-1.21-.39-.52-.61-1.14-.65-1.86h1.91c.04.43.19.79.45,1.08.26.29.6.5,1.01.64.41.14.86.21,1.35.21.54,0,1.02-.08,1.44-.24.42-.16.75-.39,1-.68.24-.29.36-.63.36-1.02,0-.35-.11-.64-.32-.87-.21-.23-.5-.41-.86-.56-.36-.15-.77-.28-1.22-.39l-1.49-.39c-1.01-.26-1.81-.64-2.41-1.15-.59-.5-.89-1.17-.89-2,0-.69.2-1.29.59-1.8.4-.51.93-.91,1.61-1.2.68-.29,1.44-.43,2.28-.43s1.61.14,2.27.43c.66.28,1.17.67,1.55,1.17.38.5.58,1.06.59,1.71h-1.84Z"/>
    <path class="cls-1" d="M111.44,58.69c-.6,0-1.14-.11-1.63-.32-.49-.21-.87-.52-1.15-.92-.28-.4-.42-.9-.42-1.49,0-.5.1-.92.31-1.25.21-.33.48-.58.83-.78.35-.19.74-.33,1.17-.43.43-.1.87-.17,1.32-.22.57-.06,1.03-.11,1.38-.15.35-.04.61-.11.77-.2.16-.09.24-.25.24-.46v-.04c0-.51-.15-.9-.45-1.18-.3-.28-.75-.42-1.35-.42s-1.11.13-1.47.39c-.36.26-.6.54-.74.86l-1.74-.37c.21-.54.51-.98.9-1.32.4-.34.85-.58,1.37-.73.52-.15,1.06-.23,1.64-.23.38,0,.78.04,1.21.12.43.08.83.24,1.2.46s.68.54.92.95.36.94.36,1.59v5.95h-1.8v-1.22h-.07c-.12.23-.3.45-.54.67s-.55.4-.92.54-.82.22-1.35.22ZM111.84,57.29c.51,0,.95-.09,1.31-.29.36-.19.64-.44.83-.75.19-.31.29-.64.29-.99v-1.15c-.07.06-.19.12-.38.17-.19.05-.4.1-.64.13s-.47.07-.7.1c-.23.03-.42.05-.57.07-.36.04-.68.12-.98.22-.29.1-.53.25-.7.43-.17.19-.26.44-.26.75,0,.43.17.76.51.98s.77.33,1.29.33Z"/>
    <path class="cls-1" d="M118.58,58.49v-8.96h1.77v1.46h.12c.2-.49.52-.88.97-1.16.45-.28.99-.42,1.61-.42s1.17.14,1.6.42c.43.28.75.66.95,1.15h.1c.23-.48.59-.86,1.08-1.15.49-.29,1.08-.43,1.77-.43.86,0,1.56.25,2.11.76.55.51.82,1.28.82,2.3v6h-1.85v-5.84c0-.61-.17-1.04-.52-1.32s-.77-.41-1.25-.41c-.6,0-1.07.17-1.4.52-.33.35-.5.79-.5,1.34v5.71h-1.84v-5.95c0-.49-.16-.88-.48-1.17-.32-.3-.74-.44-1.25-.44-.35,0-.67.09-.97.26-.29.17-.53.41-.71.72-.18.31-.27.66-.27,1.07v5.52h-1.85Z"/>
    <path class="cls-1" d="M133.94,61.85v-12.31h1.8v1.45h.15c.11-.19.26-.4.46-.65.2-.25.48-.46.84-.64.36-.18.83-.28,1.42-.28.77,0,1.45.18,2.05.55.6.37,1.07.89,1.42,1.58.34.69.52,1.52.52,2.48s-.17,1.8-.51,2.49c-.34.69-.81,1.22-1.41,1.59s-1.28.56-2.04.56c-.58,0-1.05-.09-1.41-.27-.36-.18-.65-.4-.86-.64-.21-.25-.36-.46-.48-.65h-.11v4.75h-1.85ZM135.75,54.02c0,.63.1,1.18.29,1.66.19.47.47.84.84,1.11.37.27.82.4,1.35.4s1.01-.14,1.38-.42c.37-.28.65-.66.84-1.13.19-.48.29-1.02.29-1.62s-.09-1.12-.28-1.59c-.19-.47-.47-.84-.84-1.11-.37-.27-.84-.41-1.39-.41s-.99.13-1.36.39c-.37.26-.65.62-.84,1.09-.19.47-.28,1.01-.28,1.63Z"/>
    <path class="cls-1" d="M147.44,58.69c-.6,0-1.14-.11-1.63-.32-.49-.21-.87-.52-1.15-.92-.28-.4-.42-.9-.42-1.49,0-.5.1-.92.31-1.25.21-.33.48-.58.83-.78.35-.19.74-.33,1.17-.43.43-.1.87-.17,1.32-.22.57-.06,1.03-.11,1.38-.15.35-.04.61-.11.77-.2.16-.09.24-.25.24-.46v-.04c0-.51-.15-.9-.45-1.18-.3-.28-.75-.42-1.35-.42s-1.11.13-1.47.39c-.36.26-.6.54-.74.86l-1.74-.37c.21-.54.51-.98.9-1.32s.86-.58,1.37-.73c.52-.15,1.06-.23,1.64-.23.38,0,.78.04,1.21.12.43.08.83.24,1.2.46.37.22.68.54.92.95.24.41.36.94.36,1.59v5.95h-1.8v-1.22h-.07c-.12.23-.3.45-.54.67-.24.22-.54.4-.92.54s-.82.22-1.35.22ZM147.84,57.29c.51,0,.95-.09,1.31-.29s.64-.44.83-.75c.19-.31.29-.64.29-.99v-1.15c-.07.06-.19.12-.38.17-.19.05-.4.1-.64.13-.24.04-.47.07-.7.1-.23.03-.42.05-.57.07-.36.04-.68.12-.98.22-.29.1-.53.25-.7.43s-.26.44-.26.75c0,.43.17.76.51.98s.77.33,1.29.33Z"/>
    <path class="cls-1" d="M155.51,48.16c-.32,0-.6-.1-.82-.31s-.34-.45-.34-.73.11-.53.34-.74c.23-.2.5-.31.82-.31s.6.1.82.31c.23.2.34.45.34.74s-.11.53-.34.73-.5.31-.82.31ZM154.58,58.49v-8.96h1.85v8.96h-1.85Z"/>
    <path class="cls-1" d="M162.9,58.67c-.89,0-1.67-.19-2.33-.58-.66-.38-1.18-.92-1.54-1.62-.37-.69-.55-1.5-.55-2.42s.18-1.74.55-2.44c.37-.7.88-1.24,1.54-1.62.66-.38,1.44-.58,2.33-.58s1.67.19,2.33.58,1.18.92,1.54,1.62c.37.7.55,1.51.55,2.44s-.18,1.73-.55,2.42c-.37.69-.88,1.23-1.54,1.62s-1.44.58-2.33.58ZM162.91,57.21c.58,0,1.05-.14,1.43-.43.38-.29.66-.67.84-1.15.18-.48.27-1,.27-1.58s-.09-1.1-.27-1.58c-.18-.48-.46-.87-.84-1.16-.38-.29-.86-.44-1.43-.44s-1.06.15-1.44.44c-.38.29-.66.68-.85,1.16-.18.48-.28,1.01-.28,1.58s.09,1.1.28,1.58c.18.48.46.86.85,1.15.38.29.86.43,1.44.43Z"/>
  </g>
</svg>