<?xml version="1.0" encoding="UTF-8"?>
<svg id="Camada_1" data-name="Camada 1" xmlns="http://www.w3.org/2000/svg" version="1.1" viewBox="0 0 122.5 51.8">
  <defs>
    <style>
      .cls-1 {
        fill: #4eb591;
        stroke-width: 0px;
      }
    </style>
  </defs>
  <path class="cls-1" d="M72.7,23.9c-.6-.4-1.2-.5-1.9-.5s-1.4.2-1.9.5-1,.9-1.3,1.6c-.3.7-.5,1.6-.5,2.6s.2,1.9.5,2.6c.3.7.7,1.2,1.3,1.6.6.4,1.2.5,1.9.5s1.4-.2,1.9-.5c.6-.4,1-.9,1.3-1.6.3-.7.5-1.6.5-2.6s-.2-1.9-.5-2.6c-.3-.7-.7-1.2-1.3-1.6Z"/>
  <polygon class="cls-1" points="30.7 24.2 28.9 29.6 32.6 29.6 30.8 24.2 30.7 24.2"/>
  <path class="cls-1" d="M46.3,29.2c-.4-.2-.8-.3-1.3-.3h-2.6v3.8h2.5c.9,0,1.5-.2,1.9-.5s.6-.8.6-1.3,0-.8-.3-1.1c-.2-.3-.5-.5-.8-.7Z"/>
  <path class="cls-1" d="M105.1,23.9c-.6-.4-1.2-.5-1.9-.5s-1.4.2-1.9.5-1,.9-1.3,1.6c-.3.7-.5,1.6-.5,2.6s.2,1.9.5,2.6c.3.7.7,1.2,1.3,1.6.6.4,1.2.5,1.9.5s1.4-.2,1.9-.5c.6-.4,1-.9,1.3-1.6.3-.7.5-1.6.5-2.6s-.2-1.9-.5-2.6c-.3-.7-.7-1.2-1.3-1.6Z"/>
  <path class="cls-1" d="M45.9,26.7c.3-.1.6-.4.8-.6.2-.3.3-.6.3-1s-.2-.9-.6-1.3c-.4-.3-.9-.5-1.6-.5h-2.3v3.6h2.3c.4,0,.8,0,1.1-.2Z"/>
  <path class="cls-1" d="M111.3,3.4c-.5-.2-1.1-.4-1.7-.5-.5-.1-1.1-.2-1.7-.2H14.7c-5.8,0-10.6,4.8-10.6,10.6v35.7h114.3V13.3c0-4.6-3-8.5-7.1-10ZM71.1,16.3h2.8l-2.2,3.2h-2.1l1.5-3.2ZM20,35.3h-3v-11.9h-4.4v-2.5h11.9v2.5h-4.4v11.9ZM34.5,35.3l-1.1-3.3h-5.2l-1.1,3.3h-3.3l5-14.5h3.9l5,14.5h-3.3ZM50,33.4c-.4.6-.9,1.1-1.7,1.4-.7.3-1.6.5-2.7.5h-6.2v-14.5h5.8c1.1,0,2,.2,2.7.5.7.3,1.2.8,1.6,1.3s.5,1.2.5,1.9-.1,1.1-.3,1.5c-.2.4-.5.8-.9,1s-.8.5-1.3.6h0c.6.2,1.1.3,1.5.6.5.3.9.7,1.2,1.2.3.5.5,1.1.5,1.8s-.2,1.4-.6,2ZM62.2,23.4h-6.5v3.4h5.9v2.5h-5.9v6h-3.1v-14.5h9.6v2.5ZM76.6,32.1c-.6,1.1-1.4,1.9-2.4,2.5-1,.6-2.2.9-3.4.9s-2.4-.3-3.5-.9c-1-.6-1.8-1.4-2.4-2.5-.6-1.1-.9-2.4-.9-4s.3-2.9.9-4,1.4-1.9,2.4-2.5c1-.6,2.2-.9,3.5-.9s2.4.3,3.4.9c1,.6,1.8,1.4,2.4,2.5.6,1.1.9,2.4.9,4s-.3,2.9-.9,4ZM89,35.3h-9.3v-14.5h3.1v11.9h6.2v2.5ZM94.1,35.3h-3.1v-14.5h3.1v14.5ZM109,32.1c-.6,1.1-1.4,1.9-2.4,2.5-1,.6-2.2.9-3.4.9s-2.4-.3-3.5-.9c-1-.6-1.8-1.4-2.4-2.5-.6-1.1-.9-2.4-.9-4s.3-2.9.9-4,1.4-1.9,2.4-2.5c1-.6,2.2-.9,3.5-.9s2.4.3,3.4.9c1,.6,1.8,1.4,2.4,2.5.6,1.1.9,2.4.9,4s-.3,2.9-.9,4Z"/>
</svg>